<?xml version="1.0" encoding="UTF-8" standalone="no"?>
<svg
   xmlns:dc="http://purl.org/dc/elements/1.1/"
   xmlns:cc="http://creativecommons.org/ns#"
   xmlns:rdf="http://www.w3.org/1999/02/22-rdf-syntax-ns#"
   xmlns:svg="http://www.w3.org/2000/svg"
   xmlns="http://www.w3.org/2000/svg"
   viewBox="0 0 297.67499 128.10001"
   height="128.10001"
   width="297.67499"
   xml:space="preserve"
   version="1.1"
   id="svg2"><metadata
     id="metadata8"><rdf:RDF><cc:Work
         rdf:about=""><dc:format>image/svg+xml</dc:format><dc:type
           rdf:resource="http://purl.org/dc/dcmitype/StillImage" /></cc:Work></rdf:RDF></metadata><defs
     id="defs6"><clipPath
       id="clipPath18"
       clipPathUnits="userSpaceOnUse"><path
         id="path20"
         d="m 0,0 2381,0 0,1024.78 -2381,0 L 0,0 Z" /></clipPath></defs><g
     transform="matrix(1.25,0,0,-1.25,0,128.1)"
     id="g10"><g
       transform="scale(0.1,0.1)"
       id="g12"><g
         id="g14"><g
           clip-path="url(#clipPath18)"
           id="g16"><path
             id="path22"
             style="fill:#24489e;fill-opacity:1;fill-rule:nonzero;stroke:none"
             d="m 1400.91,479.449 c -12.11,12.008 -25.92,22.442 -41.09,30.953 30.35,16.567 58.64,42.493 79.61,73.93 l 59.4,0 c -23.47,-43.371 -57.31,-79.59 -97.92,-104.883 z m -370.85,104.883 55.83,0 c 20.97,-31.43 49.26,-57.359 79.61,-73.93 -14.59,-8.183 -27.95,-18.144 -39.72,-29.589 -39.64,25.222 -72.68,60.937 -95.72,103.519 z m 20.17,112.895 c 0,-0.504 -0.01,-0.977 -0.01,-1.364 0,-32.488 9.04,-63.898 23.97,-91.976 l -53.79,0 c -12.91,28.793 -21.423,60.234 -24.638,93.34 l 54.468,0 z m -178.753,119.925 57.328,0 c -14.922,-28.078 -23.95,-59.484 -23.95,-91.976 0,-1.59 0.028,-5.672 0.067,-8.383 l -58.692,0 c 2.637,35.687 11.43,69.535 25.247,100.359 z m 107.55,124.434 c 12.106,-12.004 25.923,-22.434 41.073,-30.941 -30.358,-16.571 -58.647,-42.5 -79.604,-73.934 l -59.379,0 c 23.461,43.359 57.301,79.578 97.91,104.875 z m 370.893,-104.875 -55.87,0 c -20.94,31.426 -49.21,57.352 -79.58,73.926 14.59,8.183 27.95,18.148 39.72,29.59 39.64,-25.227 72.68,-60.934 95.73,-103.516 z m -20.26,-112.918 c 0,0.516 0,0.992 0,1.383 0,32.492 -9.01,63.898 -23.92,91.976 l 53.84,0 c 12.91,-28.797 21.42,-60.242 24.63,-93.359 l -54.55,0 z m 145.45,-27.93 c 0,1.598 -0.03,5.68 -0.09,8.375 l 58.69,0 c -2.63,-35.683 -11.42,-69.531 -25.24,-100.351 l -57.33,0 c 14.93,28.078 23.97,59.488 23.97,91.976 z m -366.29,189.793 0,-48.945 -147.316,0 c 21.324,28.227 49.356,50.762 79.206,63.914 21.01,-8.727 43.98,-13.969 68.11,-14.969 z m 0,16.434 c -44.71,2.031 -85,20.07 -114.644,48.254 34.614,18.508 73.484,29.359 114.644,30.422 l 0,-78.676 z m 19.72,0.156 0,78.281 c 39.73,-2 77.2,-13.125 110.62,-31.422 -28.92,-26.882 -67.66,-44.257 -110.62,-46.859 z m 0,-16.461 c 23.12,1.278 45.13,6.445 65.33,14.832 29.84,-13.152 57.87,-35.683 79.18,-63.906 l -144.51,0 0,49.074 z M 1093.9,603.887 c -16.29,27.593 -26.23,59.156 -26.23,91.976 0,0.403 0,0.871 -0.01,1.364 l 0.01,0 0.31,19.566 -145.738,0 c -0.09,2.48 -0.176,6.25 -0.176,8.383 0,32.824 9.977,64.387 26.313,91.976 l 337.791,0 c 16.33,-27.589 26.31,-59.152 26.31,-91.976 0,-0.406 -0.01,-0.879 -0.01,-1.383 l -0.19,0 -0.3,-19.555 145.73,0 c 0.05,-2.476 0.14,-6.234 0.14,-8.375 0,-32.82 -9.97,-64.383 -26.3,-91.976 l -337.65,0 z m 177.24,-68.512 0,48.957 147.28,0 c -21.31,-28.238 -49.35,-50.773 -79.2,-63.918 -21,8.723 -43.97,13.961 -68.08,14.961 z m 0,-16.406 c 44.72,-2.035 84.98,-20.102 114.65,-48.266 -34.62,-18.515 -73.49,-29.363 -114.65,-30.43 l 0,78.696 z m -19.69,-0.156 0,-78.305 c -39.74,1.996 -77.22,13.125 -110.65,31.43 28.93,26.894 67.7,44.277 110.65,46.875 z m 0,16.437 c -23.12,-1.27 -45.13,-6.441 -65.33,-14.824 -29.86,13.144 -57.85,35.672 -79.12,63.906 l 144.45,0 0,-49.082 z m 206.48,489.53 -66.47,0 c 17.37,-16.02 41.61,-43.925 41.61,-43.925 64.14,-71.691 101.49,-167.902 101.49,-253.89 0,-1.063 -0.03,-2.11 -0.04,-3.172 l -106.38,0 c -16.16,168.039 -149.97,300.987 -312.52,300.987 -173.429,0 -314.018,-149.253 -314.018,-333.382 0,-99.953 45.832,-211.808 120.363,-295.144 l 66.531,0 c -17.351,16.016 -41.625,43.926 -41.625,43.926 -64.129,71.679 -101.48,167.925 -101.48,253.886 0,1.063 0.023,2.11 0.035,3.161 l 106.371,0 c 16.172,-168.032 150.013,-300.973 312.533,-300.973 173.43,0 314.02,149.254 314.02,333.387 0,99.953 -45.83,211.8 -120.42,295.139" /><path
             id="path24"
             style="fill:#24489e;fill-opacity:1;fill-rule:nonzero;stroke:none"
             d="m 1130.42,771.699 c 8.98,0 16.26,7.219 16.26,16.129 0,8.914 -7.28,16.133 -16.26,16.133 -8.99,0 -16.27,-7.219 -16.27,-16.133 0,-8.91 7.28,-16.129 16.27,-16.129" /><path
             id="path26"
             style="fill:#24489e;fill-opacity:1;fill-rule:nonzero;stroke:none"
             d="m 1256.09,769.68 c 7.93,0 14.39,6.375 14.39,14.258 0,7.882 -6.46,14.269 -14.39,14.269 -7.92,0 -14.35,-6.387 -14.35,-14.269 0,-7.883 6.43,-14.258 14.35,-14.258" /><path
             id="path28"
             style="fill:#24489e;fill-opacity:1;fill-rule:nonzero;stroke:none"
             d="m 1276.03,768.684 -39.76,0 -25.64,-63.848 -30.07,0 -22.76,65.578 -54.63,0 -21.57,-67.375 c 0,-2.648 2.34,-4.789 5.28,-4.789 1.76,0 3.4,0.789 4.35,2.008 l 17.47,49.668 7.14,-45.61 -20.91,-79.5 c 0.2,-2.644 3.27,-4.601 6.82,-4.375 2.16,0.129 4.06,1.055 5.13,2.352 l 23.6,68.496 23.6,-68.496 c 1.06,-1.297 2.97,-2.223 5.15,-2.352 3.54,-0.226 6.59,1.731 6.81,4.375 l -20.92,79.5 7.14,45.61 25.99,-62.571 c 0.04,-0.058 0.1,-0.113 0.15,-0.171 l 4.26,-14.731 -6.23,-26.433 4.34,0 -1.69,-22.875 c 0.13,-1.637 2.03,-2.852 4.2,-2.715 1.36,0.09 2.53,0.656 3.18,1.461 l 2.74,24.109 10.97,0 3.13,-24.109 c 0.64,-0.805 1.83,-1.371 3.15,-1.461 2.23,-0.137 4.11,1.078 4.22,2.715 l -1.67,22.875 4.21,0 -6.11,26.433 4.51,15.613 27.32,58.383 c 0,0 5.99,-25.57 3.45,-32.187 -13.41,-35.039 -16.99,-93.84 -16.99,-93.84 l 30.68,2.371 30.81,-2.371 c 0,0 -3.55,58.801 -16.96,93.84 -2.54,6.617 3.46,32.187 3.46,32.187 l 19.54,-41.074 c 0.9,-1.184 2.44,-1.961 4.14,-1.961 2.75,0 2.38,2.086 2.38,4.656 l -23.41,60.614" /><path
             id="path30"
             style="fill:#24489e;fill-opacity:1;fill-rule:nonzero;stroke:none"
             d="m 1195.57,705.844 c 6.06,0 10.94,4.871 10.94,10.871 0,6.012 -4.88,10.867 -10.94,10.867 -6.05,0 -10.98,-4.855 -10.98,-10.867 0,-6 4.93,-10.871 10.98,-10.871" /><path
             id="path32"
             style="fill:#24489e;fill-opacity:1;fill-rule:nonzero;stroke:none"
             d="m 0,227.582 11.7539,0 0,81.7969 -11.7539,0 0,-81.7969 z" /><path
             id="path34"
             style="fill:#24489e;fill-opacity:1;fill-rule:nonzero;stroke:none"
             d="m 41.9375,281.438 0,-6.844 c 4.7969,5.402 11.1523,7.922 16.1875,7.922 3.3594,0 10.7969,-1.203 15.2344,-8.637 1.6797,-2.637 2.9961,-5.758 2.9961,-15.594 l 0,-30.703 -10.793,0 0,30.703 c 0,5.758 0,8.758 -2.8789,11.992 -2.0391,2.282 -4.4375,3.36 -8.0352,3.36 -4.9179,0 -9.4726,-2.879 -12.7109,-7.551 l 0,-38.504 -10.918,0 0,53.856 10.918,0" /><path
             id="path36"
             style="fill:#24489e;fill-opacity:1;fill-rule:nonzero;stroke:none"
             d="m 106.059,281.438 17.031,0 0,-9.598 -17.031,0 0,-23.508 c 0.117,-6.715 0.242,-7.918 1.921,-9.836 2.036,-2.156 4.676,-2.281 5.754,-2.281 2.161,0 6.239,0.246 12.118,3.84 l 0,-9.953 c -5.039,-2.758 -10.676,-3.598 -13.797,-3.598 -3.715,0 -10.313,1.559 -14.0316,6.836 -2.6367,3.961 -2.6367,9.719 -2.6367,14.633 l 0,23.867 -9.3554,0 0,1.082 20.0277,19.668 0,-11.152" /><path
             id="path38"
             style="fill:#24489e;fill-opacity:1;fill-rule:nonzero;stroke:none"
             d="m 172.645,259.965 c -0.118,2.16 -0.957,13.312 -13.071,13.312 -3.359,0 -7.433,-1.32 -10.312,-4.554 -2.879,-3.121 -3.36,-6.36 -3.719,-8.758 l 27.102,0 z m 9.597,-27.102 c -3.719,-2.398 -9.836,-6.359 -21.109,-6.359 -5.637,0 -12.11,0.84 -18.59,7.555 -7.074,7.32 -8.035,15.593 -8.035,20.75 0,16.789 10.555,27.707 25.187,27.707 12.594,0 21.11,-9 22.907,-20.871 0.601,-3.598 0.601,-5.997 0.601,-8.036 l -37.898,0 c 0.359,-8.039 5.636,-16.91 17.39,-16.91 6.953,0 13.789,2.399 19.547,6.598 l 0,-10.434" /><path
             id="path40"
             style="fill:#24489e;fill-opacity:1;fill-rule:nonzero;stroke:none"
             d="m 208.035,281.438 0,-12.356 c 3.485,5.395 8.52,13.434 16.074,13.434 1.559,0 6.356,-0.121 12.594,-6.118 l -5.64,-9.355 c -1.317,1.316 -6.114,5.277 -10.309,5.277 -3.961,0 -12.719,-4.316 -12.719,-16.554 l 0,-28.184 -10.672,0 0,53.856 10.672,0" /><path
             id="path42"
             style="fill:#24489e;fill-opacity:1;fill-rule:nonzero;stroke:none"
             d="m 257.934,281.438 0,-6.844 c 4.796,5.402 11.152,7.922 16.187,7.922 3.359,0 10.797,-1.203 15.234,-8.637 1.68,-2.637 3,-5.758 3,-15.594 l 0,-30.703 -10.796,0 0,30.703 c 0,5.758 0,8.758 -2.875,11.992 -2.043,2.282 -4.442,3.36 -8.039,3.36 -4.918,0 -9.473,-2.879 -12.711,-7.551 l 0,-38.504 -10.918,0 0,53.856 10.918,0" /><path
             id="path44"
             style="fill:#24489e;fill-opacity:1;fill-rule:nonzero;stroke:none"
             d="m 333.93,254.211 c -9.11,-3.121 -17.032,-6.238 -17.032,-12.594 0,-4.437 3.243,-7.558 7.676,-7.558 3.36,0 6.481,1.679 9.356,4.437 l 0,15.715 z m 18.351,-23.508 c -4.918,-3.242 -6.953,-4.199 -10.312,-4.199 -4.68,0 -7.199,1.68 -8.156,5.519 -4.676,-3.722 -9.594,-5.519 -14.512,-5.519 -7.914,0 -13.192,6.234 -13.192,13.195 0,10.672 9.711,13.91 18.348,17.031 l 9.473,3.352 0,2.883 c 0,6.715 -3.239,9.473 -9.711,9.473 -5.879,0 -11.875,-2.758 -17.031,-8.872 l 0,11.629 c 4.199,4.918 10.074,7.321 17.871,7.321 10.914,0 19.546,-5.52 19.546,-17.754 l 0,-27.707 c 0,-2.035 0.723,-2.754 2.04,-2.754 1.082,0 3.238,1.082 5.636,2.879 l 0,-6.477" /><path
             id="path46"
             style="fill:#24489e;fill-opacity:1;fill-rule:nonzero;stroke:none"
             d="m 375.523,281.438 17.032,0 0,-9.598 -17.032,0 0,-23.508 c 0.118,-6.715 0.239,-7.918 1.918,-9.836 2.036,-2.156 4.676,-2.281 5.758,-2.281 2.156,0 6.235,0.246 12.114,3.84 l 0,-9.953 c -5.04,-2.758 -10.672,-3.598 -13.793,-3.598 -3.715,0 -10.313,1.559 -14.036,6.836 -2.636,3.961 -2.636,9.719 -2.636,14.633 l 0,23.867 -9.356,0 0,1.082 20.031,19.668 0,-11.152" /><path
             id="path48"
             style="fill:#24489e;fill-opacity:1;fill-rule:nonzero;stroke:none"
             d="m 417.465,227.582 -10.672,0 0,53.856 10.672,0 0,-53.856 z m 0.957,70.285 c 0,-3.359 -2.875,-6.359 -6.356,-6.359 -4.078,0 -6.238,3.719 -6.238,6.359 0,2.996 2.641,6.235 6.238,6.235 3.598,0 6.356,-2.879 6.356,-6.235" /><path
             id="path50"
             style="fill:#24489e;fill-opacity:1;fill-rule:nonzero;stroke:none"
             d="m 442.266,254.449 c 0,-13.554 10.078,-18.351 17.992,-18.351 10.555,0 17.75,7.554 17.75,18.472 0,13.551 -10.551,18.352 -18.227,18.352 -9.593,0 -17.515,-6.598 -17.515,-18.473 z m 46.656,-0.121 c 0,-19.191 -15.594,-27.824 -28.902,-27.824 -17.27,0 -28.668,12.715 -28.668,28.066 0,15.11 11.035,27.946 29.023,27.946 16.074,0 28.547,-11.157 28.547,-28.188" /><path
             id="path52"
             style="fill:#24489e;fill-opacity:1;fill-rule:nonzero;stroke:none"
             d="m 513.773,281.438 0,-6.844 c 4.797,5.402 11.153,7.922 16.188,7.922 3.359,0 10.797,-1.203 15.234,-8.637 1.68,-2.637 2.996,-5.758 2.996,-15.594 l 0,-30.703 -10.793,0 0,30.703 c 0,5.758 0,8.758 -2.878,11.992 -2.04,2.282 -4.438,3.36 -8.036,3.36 -4.918,0 -9.472,-2.879 -12.711,-7.551 l 0,-38.504 -10.918,0 0,53.856 10.918,0" /><path
             id="path54"
             style="fill:#24489e;fill-opacity:1;fill-rule:nonzero;stroke:none"
             d="m 589.77,254.211 c -9.11,-3.121 -17.032,-6.238 -17.032,-12.594 0,-4.437 3.242,-7.558 7.676,-7.558 3.359,0 6.481,1.679 9.356,4.437 l 0,15.715 z m 18.351,-23.508 c -4.918,-3.242 -6.953,-4.199 -10.312,-4.199 -4.68,0 -7.2,1.68 -8.157,5.519 -4.675,-3.722 -9.593,-5.519 -14.511,-5.519 -7.914,0 -13.192,6.234 -13.192,13.195 0,10.672 9.711,13.91 18.348,17.031 l 9.473,3.352 0,2.883 c 0,6.715 -3.239,9.473 -9.711,9.473 -5.879,0 -11.875,-2.758 -17.032,-8.872 l 0,11.629 c 4.2,4.918 10.075,7.321 17.871,7.321 10.915,0 19.547,-5.52 19.547,-17.754 l 0,-27.707 c 0,-2.035 0.723,-2.754 2.039,-2.754 1.079,0 3.239,1.082 5.637,2.879 l 0,-6.477" /><path
             id="path56"
             style="fill:#24489e;fill-opacity:1;fill-rule:nonzero;stroke:none"
             d="m 619.871,227.582 10.6758,0 0,81.7969 -10.6758,0 0,-81.7969 z" /><path
             id="path58"
             style="fill:#24489e;fill-opacity:1;fill-rule:nonzero;stroke:none"
             d="m 694.023,268.242 c 0,-18.59 14.633,-30.824 31.782,-30.824 8.758,0 18.234,3.598 23.867,9.715 5.156,5.637 8.156,14.512 8.156,21.59 0,13.547 -10.312,30.703 -31.66,30.703 -22.91,0 -32.145,-17.512 -32.145,-31.184 z m 75.801,0.356 c 0,-23.504 -17.992,-42.094 -44.734,-42.094 -25.672,0 -43.18,18.949 -43.18,41.738 0,21.703 15.832,42.219 43.778,42.219 27.222,0 44.136,-19.914 44.136,-41.863" /><path
             id="path60"
             style="fill:#24489e;fill-opacity:1;fill-rule:nonzero;stroke:none"
             d="m 796.348,281.438 0,-12.356 c 3.48,5.395 8.515,13.434 16.074,13.434 1.558,0 6.351,-0.121 12.594,-6.118 l -5.641,-9.355 c -1.316,1.316 -6.113,5.277 -10.312,5.277 -3.961,0 -12.715,-4.316 -12.715,-16.554 l 0,-28.184 -10.672,0 0,53.856 10.672,0" /><path
             id="path62"
             style="fill:#24489e;fill-opacity:1;fill-rule:nonzero;stroke:none"
             d="m 852.496,272.199 c -5.879,0 -10.676,-4.441 -10.676,-9.715 0,-5.879 4.317,-9.832 10.793,-9.832 5.996,0 10.313,4.196 10.313,10.075 0,5.156 -4.797,9.472 -10.43,9.472 z m -2.762,-47.254 c -7.195,0 -12.234,-3.359 -12.234,-8.156 0,-5.398 5.277,-8.273 14.996,-8.273 9.352,0 14.867,2.875 14.867,7.793 0,6.836 -11.031,8.636 -17.629,8.636 z m 28.188,48.215 -11.035,0 c 4.199,-4.199 5.636,-7.199 5.636,-11.754 0,-4.437 -2.519,-9.593 -5.039,-12.113 -7.195,-7.676 -21.824,-3.84 -21.824,-10.195 0,-3 5.633,-4.797 16.43,-6.957 11.515,-2.278 15.59,-8.157 15.59,-14.993 0,-10.671 -9.477,-17.148 -25.43,-17.148 -14.512,0 -24.824,6.836 -24.824,16.309 0,7.914 4.199,12.593 13.554,14.875 -3.718,2.277 -5.398,4.437 -5.398,6.836 0,3.476 3.359,6.472 8.516,7.675 l 0,0.239 c -3.957,1.679 -6.953,3.961 -8.996,6.836 -1.918,2.757 -2.879,6.117 -2.879,10.074 0,11.511 9,18.594 23.507,18.594 l 22.192,0 0,-8.278" /><path
             id="path64"
             style="fill:#24489e;fill-opacity:1;fill-rule:nonzero;stroke:none"
             d="m 914.047,254.211 c -9.109,-3.121 -17.031,-6.238 -17.031,-12.594 0,-4.437 3.242,-7.558 7.675,-7.558 3.36,0 6.481,1.679 9.356,4.437 l 0,15.715 z m 18.351,-23.508 c -4.918,-3.242 -6.953,-4.199 -10.312,-4.199 -4.68,0 -7.199,1.68 -8.156,5.519 -4.676,-3.722 -9.594,-5.519 -14.512,-5.519 -7.914,0 -13.191,6.234 -13.191,13.195 0,10.672 9.711,13.91 18.347,17.031 l 9.473,3.352 0,2.883 c 0,6.715 -3.234,9.473 -9.711,9.473 -5.879,0 -11.875,-2.758 -17.031,-8.872 l 0,11.629 c 4.199,4.918 10.074,7.321 17.871,7.321 10.914,0 19.547,-5.52 19.547,-17.754 l 0,-27.707 c 0,-2.035 0.722,-2.754 2.039,-2.754 1.082,0 3.238,1.082 5.636,2.879 l 0,-6.477" /><path
             id="path66"
             style="fill:#24489e;fill-opacity:1;fill-rule:nonzero;stroke:none"
             d="m 954.645,281.438 0,-6.844 c 4.793,5.402 11.152,7.922 16.183,7.922 3.36,0 10.797,-1.203 15.235,-8.637 1.679,-2.637 3,-5.758 3,-15.594 l 0,-30.703 -10.797,0 0,30.703 c 0,5.758 0,8.758 -2.875,11.992 -2.039,2.282 -4.438,3.36 -8.036,3.36 -4.917,0 -9.472,-2.879 -12.71,-7.551 l 0,-38.504 -10.918,0 0,53.856 10.918,0" /><path
             id="path68"
             style="fill:#24489e;fill-opacity:1;fill-rule:nonzero;stroke:none"
             d="m 1016.69,227.582 -10.67,0 0,53.856 10.67,0 0,-53.856 z m 0.96,70.285 c 0,-3.359 -2.87,-6.359 -6.36,-6.359 -4.07,0 -6.23,3.719 -6.23,6.359 0,2.996 2.64,6.235 6.23,6.235 3.6,0 6.36,-2.879 6.36,-6.235" /><path
             id="path70"
             style="fill:#24489e;fill-opacity:1;fill-rule:nonzero;stroke:none"
             d="m 1046.57,237.418 28.54,0 0,-9.836 -47.25,0 28.3,43.898 -27.1,0 0,9.958 46.05,0 -28.54,-44.02" /><path
             id="path72"
             style="fill:#24489e;fill-opacity:1;fill-rule:nonzero;stroke:none"
             d="m 1112.14,254.211 c -9.11,-3.121 -17.03,-6.238 -17.03,-12.594 0,-4.437 3.24,-7.558 7.68,-7.558 3.35,0 6.47,1.679 9.35,4.437 l 0,15.715 z m 18.35,-23.508 c -4.92,-3.242 -6.95,-4.199 -10.31,-4.199 -4.68,0 -7.2,1.68 -8.16,5.519 -4.68,-3.722 -9.59,-5.519 -14.51,-5.519 -7.92,0 -13.19,6.234 -13.19,13.195 0,10.672 9.71,13.91 18.35,17.031 l 9.47,3.352 0,2.883 c 0,6.715 -3.24,9.473 -9.71,9.473 -5.88,0 -11.88,-2.758 -17.03,-8.872 l 0,11.629 c 4.19,4.918 10.07,7.321 17.87,7.321 10.91,0 19.54,-5.52 19.54,-17.754 l 0,-27.707 c 0,-2.035 0.73,-2.754 2.04,-2.754 1.08,0 3.24,1.082 5.64,2.879 l 0,-6.477" /><path
             id="path74"
             style="fill:#24489e;fill-opacity:1;fill-rule:nonzero;stroke:none"
             d="m 1153.73,281.438 17.03,0 0,-9.598 -17.03,0 0,-23.508 c 0.12,-6.715 0.24,-7.918 1.92,-9.836 2.04,-2.156 4.68,-2.281 5.76,-2.281 2.15,0 6.23,0.246 12.11,3.84 l 0,-9.953 c -5.04,-2.758 -10.67,-3.598 -13.79,-3.598 -3.72,0 -10.32,1.559 -14.04,6.836 -2.63,3.961 -2.63,9.719 -2.63,14.633 l 0,23.867 -9.36,0 0,1.082 20.03,19.668 0,-11.152" /><path
             id="path76"
             style="fill:#24489e;fill-opacity:1;fill-rule:nonzero;stroke:none"
             d="m 1195.67,227.582 -10.67,0 0,53.856 10.67,0 0,-53.856 z m 0.96,70.285 c 0,-3.359 -2.88,-6.359 -6.36,-6.359 -4.07,0 -6.23,3.719 -6.23,6.359 0,2.996 2.63,6.235 6.23,6.235 3.6,0 6.36,-2.879 6.36,-6.235" /><path
             id="path78"
             style="fill:#24489e;fill-opacity:1;fill-rule:nonzero;stroke:none"
             d="m 1220.47,254.449 c 0,-13.554 10.08,-18.351 18,-18.351 10.55,0 17.75,7.554 17.75,18.472 0,13.551 -10.56,18.352 -18.23,18.352 -9.6,0 -17.52,-6.598 -17.52,-18.473 z m 46.66,-0.121 c 0,-19.191 -15.59,-27.824 -28.9,-27.824 -17.27,0 -28.67,12.715 -28.67,28.066 0,15.11 11.04,27.946 29.02,27.946 16.08,0 28.55,-11.157 28.55,-28.188" /><path
             id="path80"
             style="fill:#24489e;fill-opacity:1;fill-rule:nonzero;stroke:none"
             d="m 1291.98,281.438 0,-6.844 c 4.8,5.402 11.15,7.922 16.19,7.922 3.36,0 10.79,-1.203 15.23,-8.637 1.68,-2.637 3,-5.758 3,-15.594 l 0,-30.703 -10.79,0 0,30.703 c 0,5.758 0,8.758 -2.88,11.992 -2.04,2.282 -4.44,3.36 -8.04,3.36 -4.91,0 -9.47,-2.879 -12.71,-7.551 l 0,-38.504 -10.92,0 0,53.856 10.92,0" /><path
             id="path82"
             style="fill:#24489e;fill-opacity:1;fill-rule:nonzero;stroke:none"
             d="m 1407.41,298.945 c -1.2,0.481 -2.4,0.957 -4.92,0.957 -11.15,0 -11.15,-9.117 -11.15,-15.23 l 0,-3.234 9.59,0 0,-9.598 -9.59,0 0,-44.258 -10.8,0 0,44.258 -7.55,0 0,9.598 7.55,0 0,3.234 c 0,8.758 1.68,12.711 2.76,15.113 3.24,6.352 9.36,10.676 16.19,10.676 3.12,0 5.64,-0.484 7.92,-1.082 l 0,-10.434" /><path
             id="path84"
             style="fill:#24489e;fill-opacity:1;fill-rule:nonzero;stroke:none"
             d="m 1419.35,254.449 c 0,-13.554 10.08,-18.351 17.99,-18.351 10.56,0 17.75,7.554 17.75,18.472 0,13.551 -10.55,18.352 -18.22,18.352 -9.6,0 -17.52,-6.598 -17.52,-18.473 z m 46.66,-0.121 c 0,-19.191 -15.59,-27.824 -28.91,-27.824 -17.27,0 -28.66,12.715 -28.66,28.066 0,15.11 11.03,27.946 29.02,27.946 16.08,0 28.55,-11.157 28.55,-28.188" /><path
             id="path86"
             style="fill:#24489e;fill-opacity:1;fill-rule:nonzero;stroke:none"
             d="m 1490.51,281.438 0,-12.356 c 3.48,5.395 8.51,13.434 16.07,13.434 1.56,0 6.35,-0.121 12.59,-6.118 l -5.63,-9.355 c -1.32,1.316 -6.12,5.277 -10.32,5.277 -3.96,0 -12.71,-4.316 -12.71,-16.554 l 0,-28.184 -10.68,0 0,53.856 10.68,0" /><path
             id="path88"
             style="fill:#24489e;fill-opacity:1;fill-rule:nonzero;stroke:none"
             d="m 1642.27,227.582 -11.75,0 0,63.688 -25.19,-31.665 -2.16,0 -25.43,31.665 0,-63.688 -11.75,0 0,81.797 11.04,0 27.22,-33.582 27.11,33.582 10.91,0 0,-81.797" /><path
             id="path90"
             style="fill:#24489e;fill-opacity:1;fill-rule:nonzero;stroke:none"
             d="m 1672.6,227.582 -10.68,0 0,53.856 10.68,0 0,-53.856 z m 0.95,70.285 c 0,-3.359 -2.87,-6.359 -6.35,-6.359 -4.08,0 -6.24,3.719 -6.24,6.359 0,2.996 2.64,6.235 6.24,6.235 3.6,0 6.35,-2.879 6.35,-6.235" /><path
             id="path92"
             style="fill:#24489e;fill-opacity:1;fill-rule:nonzero;stroke:none"
             d="m 1707.18,272.199 c -5.88,0 -10.68,-4.441 -10.68,-9.715 0,-5.879 4.32,-9.832 10.79,-9.832 6,0 10.32,4.196 10.32,10.075 0,5.156 -4.8,9.472 -10.43,9.472 z m -2.76,-47.254 c -7.2,0 -12.24,-3.359 -12.24,-8.156 0,-5.398 5.28,-8.273 15,-8.273 9.35,0 14.87,2.875 14.87,7.793 0,6.836 -11.03,8.636 -17.63,8.636 z m 28.18,48.215 -11.03,0 c 4.2,-4.199 5.63,-7.199 5.63,-11.754 0,-4.437 -2.51,-9.593 -5.03,-12.113 -7.2,-7.676 -21.83,-3.84 -21.83,-10.195 0,-3 5.64,-4.797 16.43,-6.957 11.52,-2.278 15.59,-8.157 15.59,-14.993 0,-10.671 -9.47,-17.148 -25.43,-17.148 -14.51,0 -24.82,6.836 -24.82,16.309 0,7.914 4.2,12.593 13.55,14.875 -3.72,2.277 -5.4,4.437 -5.4,6.836 0,3.476 3.36,6.472 8.52,7.675 l 0,0.239 c -3.96,1.679 -6.95,3.961 -8.99,6.836 -1.92,2.757 -2.88,6.117 -2.88,10.074 0,11.511 8.99,18.594 23.51,18.594 l 22.18,0 0,-8.278" /><path
             id="path94"
             style="fill:#24489e;fill-opacity:1;fill-rule:nonzero;stroke:none"
             d="m 1753.86,281.438 0,-12.356 c 3.48,5.395 8.51,13.434 16.07,13.434 1.56,0 6.35,-0.121 12.59,-6.118 l -5.64,-9.355 c -1.31,1.316 -6.11,5.277 -10.31,5.277 -3.96,0 -12.71,-4.316 -12.71,-16.554 l 0,-28.184 -10.68,0 0,53.856 10.68,0" /><path
             id="path96"
             style="fill:#24489e;fill-opacity:1;fill-rule:nonzero;stroke:none"
             d="m 1818.23,254.211 c -9.11,-3.121 -17.03,-6.238 -17.03,-12.594 0,-4.437 3.24,-7.558 7.67,-7.558 3.36,0 6.48,1.679 9.36,4.437 l 0,15.715 z m 18.35,-23.508 c -4.92,-3.242 -6.96,-4.199 -10.32,-4.199 -4.67,0 -7.19,1.68 -8.15,5.519 -4.68,-3.722 -9.59,-5.519 -14.51,-5.519 -7.92,0 -13.19,6.234 -13.19,13.195 0,10.672 9.71,13.91 18.34,17.031 l 9.48,3.352 0,2.883 c 0,6.715 -3.24,9.473 -9.71,9.473 -5.88,0 -11.88,-2.758 -17.04,-8.872 l 0,11.629 c 4.2,4.918 10.08,7.321 17.88,7.321 10.91,0 19.54,-5.52 19.54,-17.754 l 0,-27.707 c 0,-2.035 0.72,-2.754 2.04,-2.754 1.08,0 3.24,1.082 5.64,2.879 l 0,-6.477" /><path
             id="path98"
             style="fill:#24489e;fill-opacity:1;fill-rule:nonzero;stroke:none"
             d="m 1859.82,281.438 17.03,0 0,-9.598 -17.03,0 0,-23.508 c 0.12,-6.715 0.24,-7.918 1.92,-9.836 2.03,-2.156 4.68,-2.281 5.76,-2.281 2.15,0 6.23,0.246 12.11,3.84 l 0,-9.953 c -5.04,-2.758 -10.67,-3.598 -13.79,-3.598 -3.72,0 -10.32,1.559 -14.04,6.836 -2.63,3.961 -2.63,9.719 -2.63,14.633 l 0,23.867 -9.36,0 0,1.082 20.03,19.668 0,-11.152" /><path
             id="path100"
             style="fill:#24489e;fill-opacity:1;fill-rule:nonzero;stroke:none"
             d="m 1901.76,227.582 -10.67,0 0,53.856 10.67,0 0,-53.856 z m 0.96,70.285 c 0,-3.359 -2.88,-6.359 -6.36,-6.359 -4.07,0 -6.23,3.719 -6.23,6.359 0,2.996 2.63,6.235 6.23,6.235 3.6,0 6.36,-2.879 6.36,-6.235" /><path
             id="path102"
             style="fill:#24489e;fill-opacity:1;fill-rule:nonzero;stroke:none"
             d="m 1926.56,254.449 c 0,-13.554 10.08,-18.351 18,-18.351 10.55,0 17.74,7.554 17.74,18.472 0,13.551 -10.55,18.352 -18.22,18.352 -9.6,0 -17.52,-6.598 -17.52,-18.473 z m 46.66,-0.121 c 0,-19.191 -15.59,-27.824 -28.9,-27.824 -17.27,0 -28.67,12.715 -28.67,28.066 0,15.11 11.03,27.946 29.02,27.946 16.08,0 28.55,-11.157 28.55,-28.188" /><path
             id="path104"
             style="fill:#24489e;fill-opacity:1;fill-rule:nonzero;stroke:none"
             d="m 1998.07,281.438 0,-6.844 c 4.8,5.402 11.16,7.922 16.19,7.922 3.36,0 10.8,-1.203 15.24,-8.637 1.68,-2.637 3,-5.758 3,-15.594 l 0,-30.703 -10.8,0 0,30.703 c 0,5.758 0,8.758 -2.88,11.992 -2.04,2.282 -4.44,3.36 -8.03,3.36 -4.92,0 -9.48,-2.879 -12.72,-7.551 l 0,-38.504 -10.91,0 0,53.856 10.91,0" /><path
             id="path106"
             style="fill:#24489e;fill-opacity:1;fill-rule:nonzero;stroke:none"
             d="m 2108.71,210 c -9.12,11.391 -13.2,16.672 -17.51,27.461 -4.2,10.434 -5.52,19.789 -5.52,27.707 0,26.27 13.31,43.055 23.03,55.293 l 6.59,0 c -7.43,-11.16 -17.27,-25.672 -17.27,-55.652 0,-19.672 5.4,-39.102 17.27,-54.809 l -6.59,0" /><path
             id="path108"
             style="fill:#24489e;fill-opacity:1;fill-rule:nonzero;stroke:none"
             d="m 2127.98,227.582 11.75,0 0,81.7969 -11.75,0 0,-81.7969 z" /><path
             id="path110"
             style="fill:#24489e;fill-opacity:1;fill-rule:nonzero;stroke:none"
             d="m 2169.48,268.242 c 0,-18.59 14.64,-30.824 31.78,-30.824 8.76,0 18.24,3.598 23.87,9.715 5.16,5.637 8.16,14.512 8.16,21.59 0,13.547 -10.32,30.703 -31.66,30.703 -22.91,0 -32.15,-17.512 -32.15,-31.184 z m 75.8,0.356 c 0,-23.504 -17.99,-42.094 -44.73,-42.094 -25.67,0 -43.18,18.949 -43.18,41.738 0,21.703 15.83,42.219 43.78,42.219 27.22,0 44.13,-19.914 44.13,-41.863" /><path
             id="path112"
             style="fill:#24489e;fill-opacity:1;fill-rule:nonzero;stroke:none"
             d="m 2339.14,227.582 -11.76,0 0,63.688 -25.18,-31.665 -2.17,0 -25.42,31.665 0,-63.688 -11.75,0 0,81.797 11.03,0 27.23,-33.582 27.1,33.582 10.92,0 0,-81.797" /><path
             id="path114"
             style="fill:#24489e;fill-opacity:1;fill-rule:nonzero;stroke:none"
             d="m 2358.38,320.461 c 9.11,-11.516 13.19,-16.676 17.51,-27.469 4.19,-10.433 5.52,-19.789 5.52,-27.703 0,-26.266 -13.32,-43.059 -23.03,-55.289 l -6.6,0 c 7.44,11.152 17.27,25.664 17.27,55.527 0,19.789 -5.4,39.219 -17.27,54.934 l 6.6,0" /><path
             id="path116"
             style="fill:#24489e;fill-opacity:1;fill-rule:nonzero;stroke:none"
             d="m 590.422,99.0625 -28.547,0 0,-71.4805 -11.754,0 0,71.4805 -28.058,0 0,10.3165 68.359,0 0,-10.3165" /><path
             id="path118"
             style="fill:#24489e;fill-opacity:1;fill-rule:nonzero;stroke:none"
             d="m 613.066,74.3555 c 4.2,5.039 10.196,8.1601 16.551,8.1601 8.039,0 13.797,-4.8008 16.071,-10.1953 1.441,-3.5976 2.042,-8.7539 2.042,-14.0351 l 0,-30.7032 -10.675,0 0,33.3399 c 0,4.3242 -1.078,6.8359 -1.918,8.2773 -1.918,3.1211 -5.278,4.918 -8.516,4.918 -5.156,0 -8.879,-2.6367 -13.555,-7.9141 l 0,-38.6211 -10.671,0 0,81.797 10.671,0 0,-35.0235" /><path
             id="path120"
             style="fill:#24489e;fill-opacity:1;fill-rule:nonzero;stroke:none"
             d="m 700.027,59.9648 c -0.117,2.1602 -0.957,13.3125 -13.07,13.3125 -3.359,0 -7.437,-1.3203 -10.312,-4.5546 -2.879,-3.1211 -3.36,-6.3594 -3.719,-8.7579 l 27.101,0 z m 9.598,-27.1015 c -3.719,-2.3985 -9.836,-6.3594 -21.109,-6.3594 -5.633,0 -12.11,0.8399 -18.59,7.5547 -7.074,7.3203 -8.035,15.5937 -8.035,20.75 0,16.7891 10.554,27.707 25.187,27.707 12.594,0 21.11,-9 22.906,-20.8711 0.602,-3.5976 0.602,-5.9961 0.602,-8.0351 l -37.898,0 c 0.359,-8.0391 5.636,-16.9102 17.39,-16.9102 6.953,0 13.789,2.3985 19.547,6.5977 l 0,-10.4336" /><path
             id="path122"
             style="fill:#24489e;fill-opacity:1;fill-rule:nonzero;stroke:none"
             d="m 830.332,62.9648 c 0,-7.914 0,-19.3125 -9.234,-27.582 -7.321,-6.4805 -16.43,-8.8789 -25.785,-8.8789 -11.512,0 -24.227,3.9609 -30.704,14.2734 -4.558,7.1954 -4.558,16.668 -4.558,22.1875 l 0,46.4142 11.75,0 0,-46.4142 c 0,-10.7968 0.965,-14.9921 5.164,-19.1914 3.473,-3.5976 8.871,-6.8359 18.348,-6.8359 13.195,0 18.949,6.8359 21.109,10.793 1.558,2.8789 2.273,7.1953 2.273,15.2343 l 0,46.4142 11.637,0 0,-46.4142" /><path
             id="path124"
             style="fill:#24489e;fill-opacity:1;fill-rule:nonzero;stroke:none"
             d="m 926.996,27.582 -10.07,0 -54.692,62.9649 0,-62.9649 -11.035,0 0,81.797 9.477,0 55.168,-63.4454 0,63.4454 11.152,0 0,-81.797" /><path
             id="path126"
             style="fill:#24489e;fill-opacity:1;fill-rule:nonzero;stroke:none"
             d="m 1058.76,27.582 -11.75,0 0,63.6875 -25.19,-31.664 -2.16,0 -25.426,31.664 0,-63.6875 -11.754,0 0,81.797 11.036,0 27.224,-33.5821 27.11,33.5821 10.91,0 0,-81.797" /><path
             id="path128"
             style="fill:#24489e;fill-opacity:1;fill-rule:nonzero;stroke:none"
             d="m 1089.09,27.582 -10.68,0 0,53.8555 10.68,0 0,-53.8555 z m 0.95,70.2852 c 0,-3.3594 -2.87,-6.3594 -6.35,-6.3594 -4.08,0 -6.24,3.7188 -6.24,6.3594 0,2.9958 2.64,6.2348 6.24,6.2348 3.6,0 6.35,-2.879 6.35,-6.2348" /><path
             id="path130"
             style="fill:#24489e;fill-opacity:1;fill-rule:nonzero;stroke:none"
             d="m 1123.67,72.1992 c -5.88,0 -10.68,-4.4414 -10.68,-9.7148 0,-5.8789 4.32,-9.8321 10.79,-9.8321 6,0 10.32,4.1954 10.32,10.0743 0,5.1562 -4.8,9.4726 -10.43,9.4726 z m -2.76,-47.2539 c -7.2,0 -12.24,-3.3555 -12.24,-8.1562 0,-5.3985 5.28,-8.26957 15,-8.26957 9.35,0 14.87,2.87107 14.87,7.78907 0,6.832 -11.04,8.6367 -17.63,8.6367 z m 28.18,48.2149 -11.03,0 c 4.2,-4.1993 5.64,-7.1993 5.64,-11.7539 0,-4.4375 -2.52,-9.5938 -5.04,-12.1133 -7.2,-7.6758 -21.83,-3.8399 -21.83,-10.1953 0,-3 5.64,-4.7969 16.43,-6.9571 11.52,-2.2773 15.59,-8.1601 15.59,-14.9922 C 1148.85,6.48047 1139.38,0 1123.42,0 c -14.51,0 -24.82,6.83984 -24.82,16.3086 0,7.9102 4.2,12.5937 13.55,14.875 -3.72,2.2773 -5.4,4.4375 -5.4,6.8359 0,3.4766 3.36,6.4727 8.52,7.6758 l 0,0.2383 c -3.96,1.6797 -6.95,3.9609 -9,6.8359 -1.91,2.7578 -2.88,6.1172 -2.88,10.0743 0,11.5117 9,18.5937 23.51,18.5937 l 22.19,0 0,-8.2773" /><path
             id="path132"
             style="fill:#24489e;fill-opacity:1;fill-rule:nonzero;stroke:none"
             d="m 1170.35,81.4375 0,-12.3555 c 3.48,5.3946 8.51,13.4336 16.07,13.4336 1.56,0 6.35,-0.1211 12.59,-6.1172 l -5.64,-9.3554 c -1.31,1.3164 -6.11,5.2773 -10.31,5.2773 -3.96,0 -12.71,-4.3164 -12.71,-16.5547 l 0,-28.1836 -10.68,0 0,53.8555 10.68,0" /><path
             id="path134"
             style="fill:#24489e;fill-opacity:1;fill-rule:nonzero;stroke:none"
             d="m 1234.72,54.2109 c -9.11,-3.1211 -17.03,-6.2382 -17.03,-12.5937 0,-4.4375 3.24,-7.5586 7.68,-7.5586 3.35,0 6.47,1.6797 9.35,4.4375 l 0,15.7148 z m 18.35,-23.5078 c -4.92,-3.2422 -6.96,-4.1992 -10.32,-4.1992 -4.67,0 -7.19,1.6797 -8.15,5.5195 -4.68,-3.7226 -9.6,-5.5195 -14.51,-5.5195 -7.92,0 -13.2,6.2344 -13.2,13.1953 0,10.6719 9.72,13.9102 18.35,17.0313 l 9.48,3.3515 0,2.8828 c 0,6.7149 -3.24,9.4727 -9.72,9.4727 -5.87,0 -11.87,-2.7578 -17.03,-8.8711 l 0,11.6289 c 4.2,4.918 10.08,7.3203 17.87,7.3203 10.92,0 19.55,-5.5195 19.55,-17.7539 l 0,-27.707 c 0,-2.0352 0.72,-2.7539 2.04,-2.7539 1.08,0 3.24,1.082 5.64,2.8789 l 0,-6.4766" /><path
             id="path136"
             style="fill:#24489e;fill-opacity:1;fill-rule:nonzero;stroke:none"
             d="m 1276.31,81.4375 17.03,0 0,-9.5977 -17.03,0 0,-23.5078 c 0.12,-6.7148 0.24,-7.9179 1.92,-9.8359 2.04,-2.1563 4.68,-2.2813 5.75,-2.2813 2.16,0 6.24,0.2461 12.12,3.8399 l 0,-9.9531 c -5.04,-2.7578 -10.68,-3.5977 -13.8,-3.5977 -3.71,0 -10.31,1.5586 -14.03,6.8359 -2.64,3.961 -2.64,9.7188 -2.64,14.6329 l 0,23.8671 -9.35,0 0,1.0821 20.03,19.6679 0,-11.1523" /><path
             id="path138"
             style="fill:#24489e;fill-opacity:1;fill-rule:nonzero;stroke:none"
             d="m 1318.25,27.582 -10.67,0 0,53.8555 10.67,0 0,-53.8555 z m 0.96,70.2852 c 0,-3.3594 -2.88,-6.3594 -6.36,-6.3594 -4.08,0 -6.23,3.7188 -6.23,6.3594 0,2.9958 2.63,6.2348 6.23,6.2348 3.6,0 6.36,-2.879 6.36,-6.2348" /><path
             id="path140"
             style="fill:#24489e;fill-opacity:1;fill-rule:nonzero;stroke:none"
             d="m 1343.05,54.4492 c 0,-13.5547 10.08,-18.3515 17.99,-18.3515 10.56,0 17.75,7.5546 17.75,18.4726 0,13.5508 -10.55,18.3516 -18.22,18.3516 -9.6,0 -17.52,-6.5977 -17.52,-18.4727 z m 46.66,-0.1211 c 0,-19.1914 -15.59,-27.8242 -28.9,-27.8242 -17.27,0 -28.67,12.7149 -28.67,28.0664 0,15.1094 11.03,27.9453 29.02,27.9453 16.08,0 28.55,-11.1562 28.55,-28.1875" /><path
             id="path142"
             style="fill:#24489e;fill-opacity:1;fill-rule:nonzero;stroke:none"
             d="m 1414.56,81.4375 0,-6.8437 c 4.8,5.4023 11.15,7.9218 16.19,7.9218 3.36,0 10.79,-1.2031 15.23,-8.6367 1.68,-2.6367 3,-5.7578 3,-15.5937 l 0,-30.7032 -10.8,0 0,30.7032 c 0,5.7578 0,8.7578 -2.87,11.9921 -2.04,2.2813 -4.44,3.3594 -8.04,3.3594 -4.92,0 -9.47,-2.8789 -12.71,-7.5508 l 0,-38.5039 -10.92,0 0,53.8555 10.92,0" /><path
             id="path144"
             style="fill:#24489e;fill-opacity:1;fill-rule:nonzero;stroke:none"
             d="m 1540.78,62.2461 -13.19,29.625 -12.23,-29.625 25.42,0 z m 27.71,-34.6641 -12,0 -10.91,24.1094 -34.78,0 -10.32,-24.1094 -11.99,0 35.14,82.277 8.28,0 36.58,-82.277" /><path
             id="path146"
             style="fill:#24489e;fill-opacity:1;fill-rule:nonzero;stroke:none"
             d="m 1598.98,72.1992 c -5.87,0 -10.67,-4.4414 -10.67,-9.7148 0,-5.8789 4.32,-9.8321 10.79,-9.8321 6,0 10.32,4.1954 10.32,10.0743 0,5.1562 -4.8,9.4726 -10.44,9.4726 z m -2.75,-47.2539 c -7.2,0 -12.24,-3.3555 -12.24,-8.1562 0,-5.3985 5.28,-8.26957 14.99,-8.26957 9.35,0 14.87,2.87107 14.87,7.78907 0,6.832 -11.03,8.6367 -17.62,8.6367 z m 28.18,48.2149 -11.04,0 c 4.2,-4.1993 5.64,-7.1993 5.64,-11.7539 0,-4.4375 -2.52,-9.5938 -5.04,-12.1133 -7.19,-7.6758 -21.83,-3.8399 -21.83,-10.1953 0,-3 5.64,-4.7969 16.44,-6.9571 11.51,-2.2773 15.59,-8.1601 15.59,-14.9922 C 1624.17,6.48047 1614.69,0 1598.74,0 c -14.51,0 -24.82,6.83984 -24.82,16.3086 0,7.9102 4.2,12.5937 13.55,14.875 -3.72,2.2773 -5.4,4.4375 -5.4,6.8359 0,3.4766 3.36,6.4727 8.52,7.6758 l 0,0.2383 c -3.96,1.6797 -6.96,3.9609 -9,6.8359 -1.92,2.7578 -2.87,6.1172 -2.87,10.0743 0,11.5117 8.99,18.5937 23.5,18.5937 l 22.19,0 0,-8.2773" /><path
             id="path148"
             style="fill:#24489e;fill-opacity:1;fill-rule:nonzero;stroke:none"
             d="m 1669.71,59.9648 c -0.12,2.1602 -0.96,13.3125 -13.07,13.3125 -3.36,0 -7.44,-1.3203 -10.31,-4.5546 -2.88,-3.1211 -3.36,-6.3594 -3.72,-8.7579 l 27.1,0 z m 9.6,-27.1015 c -3.72,-2.3985 -9.84,-6.3594 -21.11,-6.3594 -5.64,0 -12.11,0.8399 -18.59,7.5547 -7.08,7.3203 -8.03,15.5937 -8.03,20.75 0,16.7891 10.55,27.707 25.18,27.707 12.6,0 21.11,-9 22.91,-20.8711 0.6,-3.5976 0.6,-5.9961 0.6,-8.0351 l -37.9,0 c 0.36,-8.0391 5.64,-16.9102 17.39,-16.9102 6.95,0 13.79,2.3985 19.55,6.5977 l 0,-10.4336" /><path
             id="path150"
             style="fill:#24489e;fill-opacity:1;fill-rule:nonzero;stroke:none"
             d="m 1705.46,81.4375 0,-6.8437 c 4.8,5.4023 11.16,7.9218 16.19,7.9218 3.36,0 10.8,-1.2031 15.23,-8.6367 1.68,-2.6367 3,-5.7578 3,-15.5937 l 0,-30.7032 -10.79,0 0,30.7032 c 0,5.7578 0,8.7578 -2.88,11.9921 -2.04,2.2813 -4.44,3.3594 -8.04,3.3594 -4.91,0 -9.47,-2.8789 -12.71,-7.5508 l 0,-38.5039 -10.91,0 0,53.8555 10.91,0" /><path
             id="path152"
             style="fill:#24489e;fill-opacity:1;fill-rule:nonzero;stroke:none"
             d="m 1796.14,67.4023 c -3,1.918 -8.03,5.1563 -14.99,5.1563 -11.15,0 -16.43,-9.4766 -16.43,-17.9883 0,-9 5.28,-17.9922 18.47,-17.9922 5.64,0 10.19,1.8008 14.15,3.5977 l 0,-10.5508 c -2.39,-0.8398 -8.03,-3.1211 -15.71,-3.1211 -18.59,0 -27.7,12.9531 -27.7,27.707 0,13.0704 7.43,28.3047 26.62,28.3047 6.96,0 11.4,-1.9179 15.59,-3.7226 l 0,-11.3907" /><path
             id="path154"
             style="fill:#24489e;fill-opacity:1;fill-rule:nonzero;stroke:none"
             d="m 1819.99,0 -11.88,0 18.35,39.0977 -20.87,42.3398 12.12,0 14.51,-30.3477 13.91,30.3477 11.99,0 L 1819.99,0" /><path
             id="path156"
             style="fill:#24489e;fill-opacity:1;fill-rule:nonzero;stroke:none"
             d="m 0.0625,151.176 2380.49,0 0,7.08984 -2380.49,0 0,-7.08984 z" /></g></g></g></g></svg>